<?xml version="1.0" encoding="utf-8"?>
<!-- Generator: Adobe Illustrator 16.0.0, SVG Export Plug-In . SVG Version: 6.00 Build 0)  -->
<!DOCTYPE svg PUBLIC "-//W3C//DTD SVG 1.1//EN" "http://www.w3.org/Graphics/SVG/1.1/DTD/svg11.dtd">
<svg version="1.1" id="Layer_1" xmlns="http://www.w3.org/2000/svg" xmlns:xlink="http://www.w3.org/1999/xlink" x="0px" y="0px"
	 width="401.042px" height="537.5px" viewBox="0 0 401.042 537.5" enable-background="new 0 0 401.042 537.5" xml:space="preserve">
<g>
	
		<path fill="none" stroke="#000000" stroke-width="3.1415" stroke-linecap="round" stroke-linejoin="round" stroke-miterlimit="10" d="
		M183.36,51.469c-2.495,5.677-1.935,7.876-7.763,8.363c-8.635,0.721-17.271,1.441-25.906,2.163
		c-15.484,1.292-30.968,2.585-46.452,3.878c4.074-2.88,8.687-7.975,13.775-8.391c9.265-0.758,18.53-1.516,27.795-2.274
		C157.676,54.156,170.514,52.748,183.36,51.469z"/>
	
		<path fill="none" stroke="#000000" stroke-width="3.1415" stroke-linecap="round" stroke-linejoin="round" stroke-miterlimit="10" d="
		M183.36,51.469c-2.495,5.677-1.935,7.876-7.763,8.363c-8.635,0.721-17.271,1.441-25.906,2.163
		c-15.484,1.292-30.968,2.585-46.452,3.878c4.074-2.88,8.687-7.975,13.775-8.391c9.265-0.758,18.53-1.516,27.795-2.274
		C157.676,54.156,170.514,52.748,183.36,51.469"/>
	
		<path fill="none" stroke="#000000" stroke-width="3.1415" stroke-linecap="round" stroke-linejoin="round" stroke-miterlimit="10" d="
		M239.249,138.104c-33.37,0-66.741,0-100.111,0c-16.517,0-33.034,0-49.551,0c-13.865,0-10.315-15.474-10.315-25.611
		c0-9.581-4.122-35.977,5.134-43.215c7.434-5.813,29.384-4.293,38.606-5.062c18.57-1.548,37.14-3.096,55.71-4.644
		c3.116-0.26,5.223-9.958,6.78-12.987c4.142-8.049,10.67-5.589,19.032-5.589c2.272,0,11.423-1.405,12.781,0.632
		c3.03,4.547,6.068,8.941,9.404,13.264c1.813,2.351,3.627,4.701,5.44,7.051c0.976,1.265,3.421,0.44,4.419,1.466
		c2.541,2.612,2.67-0.422,2.67,5.789C239.249,92.166,239.249,115.135,239.249,138.104z"/>
	
		<path fill="none" stroke="#000000" stroke-width="3.1415" stroke-linecap="round" stroke-linejoin="round" stroke-miterlimit="10" d="
		M239.249,138.104c-33.37,0-66.741,0-100.111,0c-16.517,0-33.034,0-49.551,0c-13.865,0-10.315-15.474-10.315-25.611
		c0-9.581-4.122-35.977,5.134-43.215c7.434-5.813,29.384-4.293,38.606-5.062c18.57-1.548,37.14-3.096,55.71-4.644
		c3.116-0.26,5.223-9.958,6.78-12.987c4.142-8.049,10.67-5.589,19.032-5.589c2.272,0,11.423-1.405,12.781,0.632
		c3.03,4.547,6.068,8.941,9.404,13.264c1.813,2.351,3.627,4.701,5.44,7.051c0.976,1.265,3.421,0.44,4.419,1.466
		c2.541,2.612,2.67-0.422,2.67,5.789C239.249,92.166,239.249,115.135,239.249,138.104"/>
	
		<path fill="none" stroke="#000000" stroke-width="3.1415" stroke-linecap="round" stroke-linejoin="round" stroke-miterlimit="10" d="
		M239.249,63.409c1.808,0.475,14.639,2.967,14.639,4.131c0,7.88,0,15.759,0,23.639c0,9.781-0.168,8.375,9.867,8.375
		c6.075,0,12.151,0,18.227,0c11.163,0,22.063,0.807,33.167,1.934c10.894,1.106,9.543,0.207,13.396-10.077
		c1.447-3.865,2.266-8.471-2.955-9.724c5.74,0,11.48,0,17.221,0c-6.016,14.599-5.71,28.496-1.937,43.714
		c-24.998,3.955-48.612,4.582-73.819,2.695c-4.647-0.348-12.357,4.695-16.741,6.418c-1.301,0.511-0.473,6.623-0.473,8.02
		c0,2.85,5.199,3.136,6.276,5.427c1.973,4.195-0.941,15.41-1.223,20.015c-0.525,8.603-1.031,8.877,5.626,14.399
		c-4.421,0.566-8.842,1.133-13.263,1.7c2.676,1.559,2.156,6.651,2.583,10.446c-8.102,0-12.532,1.134-18.715-3.965
		c-6.931-5.716-6.769-10.618-11.647-17.632c-9.035-12.99-18.65-22.905-34.826-26.166c-35.192-7.094-50.418,22.583-69.401,45.355
		c-3.297,3.956-9.571,10.599-13.364,5.956c-5.091-6.234-10.188-12.464-15.259-18.714c-6.999-8.626-6.994-9.067-17.971-9.067
		c-9.551,0-12.164-3.012-20.061-8.825c-4.277-3.149-9.811-4.868-9.811-10.358c0-9.382,0-18.764,0-28.146
		c0-4.419-1.348-45.203,1.193-45.203c8.542,0,17.084,0,25.626,0c6.283,0,8.149,7.892,12.875,7.892c1.628,0,0.792,37.899,0.792,42.41
		c0,10.374,7.01,10.047,15.015,10.047c16.741,0,33.482,0,50.224,0c31.234,0,62.469,0,93.703,0
		C240.336,138.104,239.249,71.543,239.249,63.409z"/>
	
		<path fill="none" stroke="#000000" stroke-width="3.1415" stroke-linecap="round" stroke-linejoin="round" stroke-miterlimit="10" d="
		M239.249,63.409c1.808,0.475,14.639,2.967,14.639,4.131c0,7.88,0,15.759,0,23.639c0,9.781-0.168,8.375,9.867,8.375
		c6.075,0,12.151,0,18.227,0c11.163,0,22.063,0.807,33.167,1.934c10.894,1.106,9.543,0.207,13.396-10.077
		c1.447-3.865,2.266-8.471-2.955-9.724c5.74,0,11.48,0,17.221,0c-6.016,14.599-5.71,28.496-1.937,43.714
		c-24.998,3.955-48.612,4.582-73.819,2.695c-4.647-0.348-12.357,4.695-16.741,6.418c-1.301,0.511-0.473,6.623-0.473,8.02
		c0,2.85,5.199,3.136,6.276,5.427c1.973,4.195-0.941,15.41-1.223,20.015c-0.525,8.603-1.031,8.877,5.626,14.399
		c-4.421,0.566-8.842,1.133-13.263,1.7c2.676,1.559,2.156,6.651,2.583,10.446c-8.102,0-12.532,1.134-18.715-3.965
		c-6.931-5.716-6.769-10.618-11.647-17.632c-9.035-12.99-18.65-22.905-34.826-26.166c-35.192-7.094-50.418,22.583-69.401,45.355
		c-3.297,3.956-9.571,10.599-13.364,5.956c-5.091-6.234-10.188-12.464-15.259-18.714c-6.999-8.626-6.994-9.067-17.971-9.067
		c-9.551,0-12.164-3.012-20.061-8.825c-4.277-3.149-9.811-4.868-9.811-10.358c0-9.382,0-18.764,0-28.146
		c0-4.419-1.348-45.203,1.193-45.203c8.542,0,17.084,0,25.626,0c6.283,0,8.149,7.892,12.875,7.892c1.628,0,0.792,37.899,0.792,42.41
		c0,10.374,7.01,10.047,15.015,10.047c16.741,0,33.482,0,50.224,0c31.234,0,62.469,0,93.703,0
		C240.336,138.104,239.249,71.543,239.249,63.409"/>
	
		<path fill="none" stroke="#000000" stroke-width="3.1415" stroke-linecap="round" stroke-linejoin="round" stroke-miterlimit="10" d="
		M232.5,62.383c3.946,1.411,21.388,2.029,21.388,5.977c0,3.296-0.489,31.194,0.468,31.194c5.959,0,11.918,0,17.877,0
		c3.601,0,3.324-7.775,3.936-10.798c0.921-4.558,6.752-20.043,13.276-11.528c7.686-5.417,0.872-32.703-11.205-31.81
		c-18.552,1.372-37.103,2.744-55.654,4.116C225.89,53.816,229.195,58.1,232.5,62.383z"/>
	
		<path fill="none" stroke="#000000" stroke-width="3.1415" stroke-linecap="round" stroke-linejoin="round" stroke-miterlimit="10" d="
		M232.5,62.383c3.946,1.411,21.388,2.029,21.388,5.977c0,3.296-0.489,31.194,0.468,31.194c5.959,0,11.918,0,17.877,0
		c3.601,0,3.324-7.775,3.936-10.798c0.921-4.558,6.752-20.043,13.276-11.528c7.686-5.417,0.872-32.703-11.205-31.81
		c-18.552,1.372-37.103,2.744-55.654,4.116C225.89,53.816,229.195,58.1,232.5,62.383"/>
	
		<path fill="none" stroke="#000000" stroke-width="3.1415" stroke-linecap="round" stroke-linejoin="round" stroke-miterlimit="10" d="
		M380.216,68.016c9.995,10.83,8.228,39.284,7.085,52.895c-0.607,7.239-0.713,21.087-8.864,22.808
		c-7.278,1.537-17.879-2.435-23.844-6.478c-7.927-5.372-14.747-9.838-15.682-20.14c-0.904-9.975-1.085-18.186,0.921-27.993
		C342.349,76.802,368.269,63.655,380.216,68.016z"/>
	<g>
		<path d="M381.508,67.122c0,0,0.258,0.072,0.691,0.257c0.458,0.168,1.081,0.458,1.869,0.852c0.8,0.449,1.773,1.172,2.806,2.059
			c0.989,0.877,2.058,1.972,3.072,3.328c2.021,2.699,3.86,6.467,4.692,10.961c0.357,2.242,0.293,4.704-0.504,7.206
			c-0.354,1.256-0.886,2.509-1.359,3.771c-0.545,1.255-1.02,2.516-1.441,3.778c-0.403,1.267-0.711,2.539-0.842,3.846
			c-0.102,0.649-0.124,1.31-0.153,1.977c-0.01,0.167-0.018,0.333-0.009,0.502l0.016,0.458c0.031,0.228,0.03,0.523,0.101,0.824
			c0.194,1.2,0.635,2.494,1.158,3.805c0.531,1.315,1.203,2.663,1.81,4.069c1.288,2.801,2.338,5.872,2.427,9.218
			c0.104,3.323-0.553,6.96-2.418,10.419c-1.841,3.444-4.793,6.626-8.132,8.727c-1.662,1.064-3.391,1.901-5.14,2.542l-0.661,0.219
			l-0.398,0.125l-0.294,0.074c-0.318,0.087-0.998,0.233-1.443,0.296c-0.956,0.148-1.897,0.183-2.818,0.157
			c-3.685-0.153-7.041-1.133-10.222-2.402c-3.173-1.29-6.226-2.789-9.099-4.635c-1.462-0.938-2.769-1.897-4.134-2.854
			c-1.345-0.978-2.729-1.925-4.055-2.981c-2.652-2.084-5.194-4.56-6.951-7.623c-1.784-3.029-2.587-6.588-2.775-9.842
			c-0.28-3.146-0.466-6.37-0.542-9.491c-0.11-6.292,0.446-12.361,1.642-18.084c0.708-3.121,2.449-5.682,4.266-7.789
			c1.849-2.121,3.886-3.873,5.935-5.393c4.112-3.03,8.28-5.155,12.11-6.688c3.838-1.516,7.35-2.475,10.348-2.884
			c2.993-0.429,5.455-0.321,7.132-0.034c0.84,0.132,1.481,0.318,1.913,0.437c0.43,0.141,0.65,0.213,0.65,0.213
			c0.824,0.27,1.273,1.157,1.003,1.981c-0.27,0.824-1.157,1.273-1.981,1.003l-0.011-0.004l-0.087-0.029c0,0-0.17-0.057-0.498-0.167
			c-0.338-0.094-0.834-0.246-1.521-0.359c-1.361-0.244-3.477-0.371-6.197-0.006c-2.716,0.355-6.019,1.188-9.642,2.628
			c-3.611,1.45-7.578,3.482-11.423,6.324c-1.913,1.422-3.796,3.055-5.445,4.953c-1.637,1.899-3.062,4.067-3.598,6.502
			c-1.11,5.367-1.659,11.268-1.539,17.335c0.067,3.058,0.199,6.117,0.459,9.308c0.154,3.087,0.825,6,2.305,8.651
			c1.447,2.65,3.648,4.92,6.125,6.942c1.238,1.015,2.54,1.985,3.88,2.922c1.342,0.93,2.695,1.905,4.038,2.755
			c2.73,1.701,5.626,3.205,8.648,4.274c3.015,1.052,6.159,1.795,9.199,1.717c1.536-0.036,2.936-0.32,4.312-0.908
			c0.691-0.281,1.334-0.655,1.942-1.058c0.61-0.402,1.178-0.86,1.665-1.391c1.013-1.023,1.735-2.275,2.259-3.58
			c0.538-1.3,0.862-2.679,1.048-4.073c0.651-5.598,0.156-11.252-0.405-16.769c-0.155-1.382-0.265-2.762-0.399-4.154
			c-0.123-1.399-0.252-2.783-0.282-4.319c-0.008-0.383-0.004-0.773,0.018-1.273l0.07-1.034c0.047-0.633,0.093-1.261,0.14-1.882
			c0.066-1.239,0.153-2.458,0.175-3.644c0.103-4.751,0.033-9.052-0.478-12.807c-0.413-3.767-1.264-6.95-2.093-9.539
			c-0.409-1.3-0.879-2.421-1.288-3.405c-0.42-0.961-0.774-1.754-1.092-2.43c-0.74-1.367-1.136-2.096-1.136-2.096
			c-0.375-0.693-0.117-1.558,0.575-1.933c0.338-0.183,0.717-0.215,1.061-0.12L381.508,67.122z"/>
	</g>
	<path fill-rule="evenodd" clip-rule="evenodd" stroke="#000000" stroke-width="3.1415" stroke-miterlimit="10" d="M183.36,51.469
		c3.833-13.27,11.957-10.474,23.868-10.474c6.854,0,8.767-1.349,12.512,4.269c3.763,5.644,5.744,3.977,12.468,3.3
		c-1.728-7.726-14.243-12.191-21.54-13.105c-4.409-0.553-7.149-9.15-8.167-14c-0.604-2.881-2.262,8.021-0.863,13.875
		c-3.666-1.298-7.405-1.967-11.205-0.675c-4.639,1.578-2.114,4.19-7.481,3.637c-2.495-0.257-6.119-3-8.039-4.37
		c0.606,3.139,1.213,6.278,1.819,9.417c-3.258-0.424-5.274-3.162-6.191-6.308c-8.114,4.069-20.762,5.161-20.184,17.72
		C161.357,53.66,172.358,52.564,183.36,51.469z"/>
	<path fill="none" stroke="#000000" stroke-width="3.1415" stroke-miterlimit="10" d="M183.36,51.469
		c3.833-13.27,11.957-10.474,23.868-10.474c6.854,0,8.767-1.349,12.512,4.269c3.763,5.644,5.744,3.977,12.468,3.3
		c-1.728-7.726-16.91-13.358-24.207-14.272c-4.409-0.553-5.667-16.667-5.667-16.667s-2.095,11.854-0.696,17.708
		c-3.666-1.298-7.405-1.967-11.205-0.675c-4.639,1.578-2.114,4.19-7.481,3.637c-2.495-0.257-6.119-3-8.039-4.37
		c0.606,3.139,1.213,6.278,1.819,9.417c-3.258-0.424-5.274-3.162-6.191-6.308c-8.114,4.069-20.762,5.161-20.184,17.72
		C161.357,53.66,172.358,52.564,183.36,51.469"/>
	
		<path fill="none" stroke="#000000" stroke-width="3.1415" stroke-linecap="round" stroke-linejoin="round" stroke-miterlimit="10" d="
		M292.554,74.118c2.006-0.742,4.483-0.78,6.661-0.118c-2.186-10.465-1.893-16.104-10.385-22.53L292.554,74.118z"/>
	
		<path fill="none" stroke="#000000" stroke-width="3.1415" stroke-linecap="round" stroke-linejoin="round" stroke-miterlimit="10" d="
		M292.554,74.118c2.006-0.742,4.483-0.78,6.661-0.118c-2.186-10.465-1.893-16.104-10.385-22.53L292.554,74.118"/>
	
		<path fill="none" stroke="#000000" stroke-width="3.1415" stroke-linecap="round" stroke-linejoin="round" stroke-miterlimit="10" d="
		M312.857,101.255c1.828-3.862,8.709-26.176,16.047-17.543c3.199,3.763-1.719,11.323-3.044,14.86
		C323.566,104.697,318.973,101.875,312.857,101.255z"/>
	
		<path fill="none" stroke="#000000" stroke-width="3.1415" stroke-linecap="round" stroke-linejoin="round" stroke-miterlimit="10" d="
		M312.857,101.255c1.828-3.862,8.709-26.176,16.047-17.543c3.199,3.763-1.719,11.323-3.044,14.86
		C323.566,104.697,318.973,101.875,312.857,101.255"/>
	
		<path fill="none" stroke="#000000" stroke-width="3.1415" stroke-linecap="round" stroke-linejoin="round" stroke-miterlimit="10" d="
		M322.597,82.567c-3.591,3.541-5.191,9.077-7.323,13.583c-0.351,0.74-1.584,4.693-2.416,5.105c-0.811,0.401-5.974-0.3-5.921-0.971
		c0.475-6.051,0.95-12.103,1.425-18.154c0.087-1.097,14.335-0.443,16.376-0.443L322.597,82.567z"/>
	
		<path fill="none" stroke="#000000" stroke-width="3.1415" stroke-linecap="round" stroke-linejoin="round" stroke-miterlimit="10" d="
		M322.597,82.567c-3.591,3.541-5.191,9.077-7.323,13.583c-0.351,0.74-1.584,4.693-2.416,5.105c-0.811,0.401-5.974-0.3-5.921-0.971
		c0.475-6.051,0.95-12.103,1.425-18.154c0.087-1.097,14.335-0.443,16.376-0.443L322.597,82.567"/>
	
		<path fill="none" stroke="#000000" stroke-width="3.1415" stroke-linecap="round" stroke-linejoin="round" stroke-miterlimit="10" d="
		M322.715,131.181c-1.146,4.178,6.556,10.828,6.242,17.371c-0.307,6.419,1.485,12.767,2.312,19.139
		c1.646,12.706,1.03,25.762-2.159,38.183c-3.423,13.33-9.705,25.104-13.883,38.123c-1.757,5.472-8.661,7.384-13.195,11.355
		c-6.105,5.346-9.964,11.347-13.267,18.696c-1.068,2.378-5.505,16.68-2.439,17.267c7.548,1.445,14.914,2.181,22.593,2.452
		c13.962,0.493,27.015-2.533,40.308-6.444c1.767-0.52,9.98-30.805,11.377-35.065c3.97-12.106,6.88-25.289,6.88-38.088
		c0-11.534,0.218-22.408,1.585-33.819c1.179-9.833,7.117-21.315,5.69-31.451c-0.975-6.921-0.731-3.734-7.873-6.414
		c-6.254-2.346-11.096-4.434-16.603-8.166c-3.562-2.414-7.722-9.193-11.631-8.558C334.146,126.493,323.903,126.04,322.715,131.181z"
		/>
	
		<path fill="none" stroke="#000000" stroke-width="3.1415" stroke-linecap="round" stroke-linejoin="round" stroke-miterlimit="10" d="
		M322.715,131.181c-1.146,4.178,6.556,10.828,6.242,17.371c-0.307,6.419,1.485,12.767,2.312,19.139
		c1.646,12.706,1.03,25.762-2.159,38.183c-3.423,13.33-9.705,25.104-13.883,38.123c-1.757,5.472-8.661,7.384-13.195,11.355
		c-6.105,5.346-9.964,11.347-13.267,18.696c-1.068,2.378-5.505,16.68-2.439,17.267c7.548,1.445,14.914,2.181,22.593,2.452
		c13.962,0.493,27.015-2.533,40.308-6.444c1.767-0.52,9.98-30.805,11.377-35.065c3.97-12.106,6.88-25.289,6.88-38.088
		c0-11.534,0.218-22.408,1.585-33.819c1.179-9.833,7.117-21.315,5.69-31.451c-0.975-6.921-0.731-3.734-7.873-6.414
		c-6.254-2.346-11.096-4.434-16.603-8.166c-3.562-2.414-7.722-9.193-11.631-8.558C334.146,126.493,323.903,126.04,322.715,131.181"
		/>
	
		<path fill="none" stroke="#000000" stroke-width="3.1415" stroke-linecap="round" stroke-linejoin="round" stroke-miterlimit="10" d="
		M290.002,237.06c6.731-19.381,10.998-37.391,12.902-57.831c0.868-9.312,6.705-16.034,10.016-24.746
		c3.334-8.773,5.17-16.733,6.361-26.092c-9.325,0.622-19.006,2.19-28.338,1.492c-13.637-1.021-22.572-2.468-35.166,2.482
		c-6.788,2.668-5.938,2.725-5.938,10.167c0,3.711,6.405,3.314,6.111,8.129c-0.448,7.333-0.896,14.667-1.344,22.001
		c-0.35,5.728,1.339,5.917,5.912,9.71c0.981-10.787,1.962-21.573,2.943-32.359c0.366-4.025,4.859-4.042,4.859-4.31
		c0-5.204,0-10.407,0-15.61c2.417,9.654,6.136,17.68,14.11,23.939c-4.624,4.201-7.739,13.476-11.354,19.363
		c-4.032,6.569-8.621,12.929-13.379,18.995c-10.518,13.408-19.521,27.532-27.958,42.35l4.693-8.244
		c-13.469,5.854-23.704,16.687-28.867,30.658c-3.756,10.162-1.654,13.618,6.221,20.947c5.575,5.189,12.646,9.127,19.466,12.407
		c5.938,2.856,14.26,6.031,21.02,4.901c8.134-1.359,10.872-7.637,14.786-14.167C275.688,266.848,283.453,252.529,290.002,237.06z"/>
	
		<path fill="none" stroke="#000000" stroke-width="3.1415" stroke-linecap="round" stroke-linejoin="round" stroke-miterlimit="10" d="
		M290.002,237.06c6.731-19.381,10.998-37.391,12.902-57.831c0.868-9.312,6.705-16.034,10.016-24.746
		c3.334-8.773,5.17-16.733,6.361-26.092c-9.325,0.622-19.006,2.19-28.338,1.492c-13.637-1.021-22.572-2.468-35.166,2.482
		c-6.788,2.668-5.938,2.725-5.938,10.167c0,3.711,6.405,3.314,6.111,8.129c-0.448,7.333-0.896,14.667-1.344,22.001
		c-0.35,5.728,1.339,5.917,5.912,9.71c0.981-10.787,1.962-21.573,2.943-32.359c0.366-4.025,4.859-4.042,4.859-4.31
		c0-5.204,0-10.407,0-15.61c2.417,9.654,6.136,17.68,14.11,23.939c-4.624,4.201-7.739,13.476-11.354,19.363
		c-4.032,6.569-8.621,12.929-13.379,18.995c-10.518,13.408-19.521,27.532-27.958,42.35l4.693-8.244
		c-13.469,5.854-23.704,16.687-28.867,30.658c-3.756,10.162-1.654,13.618,6.221,20.947c5.575,5.189,12.646,9.127,19.466,12.407
		c5.938,2.856,14.26,6.031,21.02,4.901c8.134-1.359,10.872-7.637,14.786-14.167C275.688,266.848,283.453,252.529,290.002,237.06"/>
	<path fill-rule="evenodd" clip-rule="evenodd" stroke="#000000" stroke-width="3.1415" stroke-miterlimit="10" d="M358.065,166.765
		c1.038-10.069-7.553-12.281-12.38-18.599c-5.628-7.366-6.664-16.072-16.02-20.946c8.469-1.375,10.161-2.97,15.914,3.359
		c3.665,4.033,5.828,9.517,8.034,14.417c5.147,11.43,4.482,22.144,3.835,34.357L358.065,166.765z"/>
	
		<path fill="none" stroke="#000000" stroke-width="3.1415" stroke-linecap="round" stroke-linejoin="round" stroke-miterlimit="10" d="
		M358.065,166.765c1.038-10.069-7.553-12.281-12.38-18.599c-5.628-7.366-6.664-16.072-16.02-20.946
		c8.469-1.375,10.161-2.97,15.914,3.359c3.665,4.033,5.828,9.517,8.034,14.417c5.147,11.43,4.482,22.144,3.835,34.357
		L358.065,166.765"/>
	
		<path fill="none" stroke="#000000" stroke-width="3.1415" stroke-linecap="round" stroke-linejoin="round" stroke-miterlimit="10" d="
		M224.404,185.013c-7.55-30.412-39.489-45.574-68.095-35.477c-27.549,9.724-34.45,47.447-36.421,73.221
		c-2.191,28.654,1.732,60.453,15.413,85.947c2.263,4.218-6.371,8.821-3.952,16.053c2.167,6.479,4.396,13.188,5.409,19.964
		c1.244,8.319-0.467,10.81-3.117,18.44c-1.675,4.824,1.573,19.041,7.718,15.216c39.707-24.725,106.806-14.913,142.335,13.318
		c1.833-17.646,3.624-35.411,3.096-53.185c-0.285-9.581-0.665-19.036-1.482-28.583c-0.844-9.854,0.736-17.56-3.314-26.811
		l3.521,8.041c-1.764-19.839,13.429-35.284,29.161-44.154c-4.419-1.781-20.644-11.505-24.673-9.944
		c-2.594,1.005-9.621,20.92-11.688,24.617c-6.786,12.14-15.415,38.852-33.638,33.333c-8.091-2.45-15.681-4.913-22.856-9.515
		c-3.558-2.281-20.082-13.625-18.805-18.533c4.712-18.104,13.808-32.81,31.42-40.465l-4.693,8.244
		c5.596-9.828,11.64-19.354,17.636-28.944C249.229,202.836,227.936,187.925,224.404,185.013z"/>
	
		<path fill="none" stroke="#000000" stroke-width="3.1415" stroke-linecap="round" stroke-linejoin="round" stroke-miterlimit="10" d="
		M224.404,185.013c-7.55-30.412-39.489-45.574-68.095-35.477c-27.549,9.724-34.45,47.447-36.421,73.221
		c-2.191,28.654,1.732,60.453,15.413,85.947c2.263,4.218-6.371,8.821-3.952,16.053c2.167,6.479,4.396,13.188,5.409,19.964
		c1.244,8.319-0.467,10.81-3.117,18.44c-1.675,4.824,1.573,19.041,7.718,15.216c39.707-24.725,106.806-14.913,142.335,13.318
		c1.833-17.646,3.624-35.411,3.096-53.185c-0.285-9.581-0.665-19.036-1.482-28.583c-0.844-9.854,0.736-17.56-3.314-26.811
		l3.521,8.041c-1.764-19.839,13.429-35.284,29.161-44.154c-4.419-1.781-20.644-11.505-24.673-9.944
		c-2.594,1.005-9.621,20.92-11.688,24.617c-6.786,12.14-15.415,38.852-33.638,33.333c-8.091-2.45-15.681-4.913-22.856-9.515
		c-3.558-2.281-20.082-13.625-18.805-18.533c4.712-18.104,13.808-32.81,31.42-40.465l-4.693,8.244
		c5.596-9.828,11.64-19.354,17.636-28.944C249.229,202.836,227.936,187.925,224.404,185.013"/>
	
		<path fill="none" stroke="#000000" stroke-width="3.1415" stroke-linecap="round" stroke-linejoin="round" stroke-miterlimit="10" d="
		M130.376,528.792c-9.162-24.262-12.648-50.396-10.034-76.202c1.347-13.296,4.098-26.255,8.539-38.89
		c1.907-5.425,3.854-11.693,6.767-16.65c3.269-5.563,10.064-12.067,3.354-17.204c25.603-15.942,56.29-15.554,85.371-12.457
		c12.552,1.336,27.274,5.822,38.467,11.632c7.203,3.738,13.819,7.085,20.157,12.121c2.486,1.976,2.902,5.619,3.717,8.485
		c1.305,4.597,4.697,1.771,4.697,8.046c0,2.012,1.212,9.744-0.985,10.185c-1.485,0.298-5.322,0.015-5.322,1.891
		c0,6.345,0,12.689,0,19.034c0,21.857,0,43.714,0,65.571c0,5.357,3.672,24.438-3.074,24.438c-15.889,0-31.778,0-47.667,0
		c-35.16,0-70.321,0-105.481,0H130.376z"/>
	
		<path fill="none" stroke="#000000" stroke-width="3.1415" stroke-linecap="round" stroke-linejoin="round" stroke-miterlimit="10" d="
		M130.376,528.792c-9.162-24.262-12.648-50.396-10.034-76.202c1.347-13.296,4.098-26.255,8.539-38.89
		c1.907-5.425,3.854-11.693,6.767-16.65c3.269-5.563,10.064-12.067,3.354-17.204c25.603-15.942,56.29-15.554,85.371-12.457
		c12.552,1.336,27.274,5.822,38.467,11.632c7.203,3.738,13.819,7.085,20.157,12.121c2.486,1.976,2.902,5.619,3.717,8.485
		c1.305,4.597,4.697,1.771,4.697,8.046c0,2.012,1.212,9.744-0.985,10.185c-1.485,0.298-5.322,0.015-5.322,1.891
		c0,6.345,0,12.689,0,19.034c0,21.857,0,43.714,0,65.571c0,5.357,3.672,24.438-3.074,24.438c-15.889,0-31.778,0-47.667,0
		c-35.16,0-70.321,0-105.481,0H130.376"/>
	
		<path fill="none" stroke="#000000" stroke-width="3.1415" stroke-linecap="round" stroke-linejoin="round" stroke-miterlimit="10" d="
		M54.715,196.016c2.813,2.763,29.823-9.573,35.908-11.736c-2.412-2.973-8.652-13.993-12.379-13.993
		c-4.694,0-9.496,2.371-13.73,4.399c-4.332,2.075-8.16,4.652-11.655,7.933C46.096,188.967,49.025,189.401,54.715,196.016z"/>
	
		<path fill="none" stroke="#000000" stroke-width="3.1415" stroke-linecap="round" stroke-linejoin="round" stroke-miterlimit="10" d="
		M54.715,196.016c2.813,2.763,29.823-9.573,35.908-11.736c-2.412-2.973-8.652-13.993-12.379-13.993
		c-4.694,0-9.496,2.371-13.73,4.399c-4.332,2.075-8.16,4.652-11.655,7.933C46.096,188.967,49.025,189.401,54.715,196.016"/>
	
		<path fill="none" stroke="#000000" stroke-width="3.1415" stroke-linecap="round" stroke-linejoin="round" stroke-miterlimit="10" d="
		M27.46,422.354c-32.12-78.571-20.905-160.646,22.208-232.205c6.696,7.785,3.31,8.849-1.849,17.708
		c-3.915,6.722-7.107,13.76-10.461,20.781c-5.536,11.586-10.302,25.477-12.983,38.046c-6.323,29.644-8.62,58.449-4.896,88.614
		c3.562,28.856,13.863,55.316,26.126,81.447c13.118,27.956,22.622,56.234,29.067,86.449c0.398,1.865,0.796,3.731,1.194,5.598
		c-5.095,0-10.189,0-15.284,0c-2.745-19.312-6.464-37.844-11.989-56.563C43.521,455.042,34.73,438.728,27.46,422.354z"/>
	
		<path fill="none" stroke="#000000" stroke-width="3.1415" stroke-linecap="round" stroke-linejoin="round" stroke-miterlimit="10" d="
		M27.46,422.354c-32.12-78.571-20.905-160.646,22.208-232.205c6.696,7.785,3.31,8.849-1.849,17.708
		c-3.915,6.722-7.107,13.76-10.461,20.781c-5.536,11.586-10.302,25.477-12.983,38.046c-6.323,29.644-8.62,58.449-4.896,88.614
		c3.562,28.856,13.863,55.316,26.126,81.447c13.118,27.956,22.622,56.234,29.067,86.449c0.398,1.865,0.796,3.731,1.194,5.598
		c-5.095,0-10.189,0-15.284,0c-2.745-19.312-6.464-37.844-11.989-56.563C43.521,455.042,34.73,438.728,27.46,422.354"/>
	
		<path fill="none" stroke="#000000" stroke-width="3.1415" stroke-linecap="round" stroke-linejoin="round" stroke-miterlimit="10" d="
		M285.514,418.924c7.984,0.708,5.896-5.55,5.896-11.252c0-6.866-4.577-7.056-10.53-10.221c-8.047-4.278-16.06-8.939-24.527-12.354
		c-0.694,5.606-1.594,11.513-2.259,16.956C265.589,406.219,274.818,413.739,285.514,418.924z"/>
	
		<path fill="none" stroke="#000000" stroke-width="3.1415" stroke-linecap="round" stroke-linejoin="round" stroke-miterlimit="10" d="
		M285.514,418.924c7.984,0.708,5.896-5.55,5.896-11.252c0-6.866-4.577-7.056-10.53-10.221c-8.047-4.278-16.06-8.939-24.527-12.354
		c-0.694,5.606-1.594,11.513-2.259,16.956C265.589,406.219,274.818,413.739,285.514,418.924"/>
	
		<path fill="none" stroke="#000000" stroke-width="3.1415" stroke-linecap="round" stroke-linejoin="round" stroke-miterlimit="10" d="
		M244.704,398.651c-12.825-5.385-25.843-6.955-39.726-6.955c-11.163,0-32.393-2.025-41.274,4.814
		c0.37-4.405,0.739-8.812,1.108-13.217c0.509-6.077-0.03-5.487,5.928-6.591c9.058-1.679,17.815-3.076,27.038-3.076
		c17.174,0,34.037,2.894,50.564,7.479C246.832,386.843,245.505,392.824,244.704,398.651z"/>
	
		<path fill="none" stroke="#000000" stroke-width="3.1415" stroke-linecap="round" stroke-linejoin="round" stroke-miterlimit="10" d="
		M244.704,398.651c-12.825-5.385-25.843-6.955-39.726-6.955c-11.163,0-32.393-2.025-41.274,4.814
		c0.37-4.405,0.739-8.812,1.108-13.217c0.509-6.077-0.03-5.487,5.928-6.591c9.058-1.679,17.815-3.076,27.038-3.076
		c17.174,0,34.037,2.894,50.564,7.479C246.832,386.843,245.505,392.824,244.704,398.651"/>
	
		<path fill="none" stroke="#000000" stroke-width="3.1415" stroke-linecap="round" stroke-linejoin="round" stroke-miterlimit="10" d="
		M153.876,398.737c-9.103,3.594-17.199,9.402-24.996,15.198c3.074-7.813,5.863-15.347,10.112-22.577
		c3.75-6.381,11.198-8.209,17.642-10.896C155.714,386.553,154.795,392.645,153.876,398.737z"/>
	
		<path fill="none" stroke="#000000" stroke-width="3.1415" stroke-linecap="round" stroke-linejoin="round" stroke-miterlimit="10" d="
		M153.876,398.737c-9.103,3.594-17.199,9.402-24.996,15.198c3.074-7.813,5.863-15.347,10.112-22.577
		c3.75-6.381,11.198-8.209,17.642-10.896C155.714,386.553,154.795,392.645,153.876,398.737"/>
	<g>
		<path d="M164.895,238.073c0,0,0.776,0.489,1.944,1.518c0.577,0.521,1.27,1.16,2.005,1.947c0.749,0.775,1.542,1.695,2.436,2.674
			c0.888,0.984,1.849,2.051,2.866,3.179c1.037,1.103,2.168,2.217,3.317,3.396c2.308,2.349,4.77,4.854,7.231,7.36
			c2.544,2.435,5.088,4.87,7.474,7.153c1.198,1.136,2.335,2.259,3.452,3.279c1.131,1.003,2.2,1.951,3.187,2.827
			c3.955,3.496,6.569,5.864,6.569,5.864l-1.117,1.397c0,0-2.772-2.209-6.898-5.58c-1.033-0.841-2.152-1.752-3.336-2.716
			c-1.152-0.999-2.324-2.097-3.561-3.209c-2.462-2.236-5.089-4.621-7.716-7.006c-2.517-2.513-5.034-5.026-7.393-7.383
			c-1.173-1.183-2.333-2.309-3.387-3.41c-1.027-1.119-1.998-2.177-2.894-3.154c-0.89-0.982-1.731-1.859-2.432-2.678
			c-0.714-0.806-1.284-1.556-1.748-2.18c-0.914-1.259-1.326-2.078-1.326-2.077L164.895,238.073z"/>
	</g>
	
		<path fill="none" stroke="#000000" stroke-width="3.1415" stroke-linecap="round" stroke-linejoin="round" stroke-miterlimit="10" d="
		M202.812,267.747c2.992,3.452,5.985,6.904,8.978,10.355C204.907,282.112,200.495,273.621,202.812,267.747z"/>
	
		<path fill="none" stroke="#000000" stroke-width="3.1415" stroke-linecap="round" stroke-linejoin="round" stroke-miterlimit="10" d="
		M202.812,267.747c2.992,3.452,5.985,6.904,8.978,10.355C204.907,282.112,200.495,273.621,202.812,267.747"/>
	<g>
		<path d="M377.768,69.198c-0.001,0,0.209,0.364,0.507,1.021c0.173,0.335,0.304,0.726,0.488,1.194
			c0.091,0.233,0.187,0.484,0.29,0.752c0.083,0.263,0.172,0.542,0.266,0.836c0.173,0.578,0.343,1.246,0.511,1.904
			c0.197,0.663,0.341,1.354,0.505,2.088c0.126,0.724,0.27,1.488,0.339,2.269c0.129,0.81,0.166,1.645,0.221,2.511
			c0.006,0.428,0.013,0.866,0.019,1.312c0.006,0.444-0.047,0.886-0.041,1.346c0.013,0.918-0.121,1.841-0.205,2.798
			c-0.063,0.476-0.169,0.951-0.307,1.429c-0.104,0.482-0.28,0.962-0.471,1.448c-0.401,0.969-0.975,1.947-1.635,2.95
			c-1.301,2.001-3.009,4.122-3.806,6.382c-0.876,2.256-0.783,4.612-0.464,6.933c0.436,2.32,1.197,4.614,2.309,6.786
			c0.975,2.188,2.189,4.249,2.9,6.266c0.089,0.252,0.185,0.502,0.29,0.749l0.255,0.743c0.181,0.491,0.313,0.982,0.432,1.471
			c0.14,0.484,0.228,0.972,0.306,1.455c0.038,0.242,0.092,0.479,0.146,0.713l0.106,0.71c0.068,0.472,0.136,0.937,0.202,1.395
			c0.04,0.465,0.079,0.923,0.118,1.373c0.063,0.905,0.151,1.772,0.173,2.627c0.024,0.854,0.018,1.685-0.023,2.489
			c0.007,0.79-0.044,1.562-0.098,2.294c-0.06,0.735-0.141,1.437-0.244,2.1c-0.102,0.663-0.162,1.265-0.273,1.833
			c-0.089,0.56-0.219,1.083-0.327,1.54c-0.105,0.456-0.188,0.844-0.301,1.177c-0.186,0.652-0.326,1.021-0.326,1.021l-0.367,0.961
			c-0.278,0.73-1.095,1.096-1.825,0.817c-0.328-0.125-0.584-0.362-0.739-0.648c0,0-0.579-1.071-1.497-3.003
			c-0.223-0.485-0.514-1.009-0.75-1.606c-0.232-0.6-0.484-1.249-0.753-1.941c-0.269-0.695-0.555-1.435-0.856-2.215
			c-0.283-0.786-0.535-1.626-0.789-2.507c-0.554-1.75-1.026-3.677-1.522-5.72c-0.29-1.014-0.413-2.088-0.6-3.174
			c-0.168-1.089-0.373-2.197-0.519-3.333c-0.229-2.278-0.436-4.633-0.506-7.031c-0.143-2.395-0.068-4.829-0.192-7.256
			c0.006-1.214,0.011-2.429,0.017-3.638c-0.069-1.211-0.014-2.415-0.08-3.615c-0.12-2.4-0.227-4.773-0.232-7.075
			c-0.001-1.15,0.031-2.281,0.131-3.381c0.055-1.106,0.226-2.174,0.392-3.212c0.4-2.067,0.743-4.025,1.28-5.788
			c0.251-0.885,0.447-1.738,0.716-2.536c0.277-0.801,0.541-1.561,0.788-2.274c0.533-1.42,0.998-2.636,1.477-3.573
			c0.44-0.96,0.838-1.701,1.106-2.207c0.278-0.503,0.427-0.771,0.427-0.771c0.393-0.709,1.286-0.965,1.995-0.572
			c0.241,0.133,0.431,0.325,0.559,0.547L377.768,69.198z"/>
	</g>
	
		<path fill="none" stroke="#000000" stroke-width="3.1415" stroke-linecap="round" stroke-linejoin="round" stroke-miterlimit="10" d="
		M288.301,75.613c-11.711-4.883-13.145,18.142-14.316,23.94c11.106,0,21.873,0.08,32.917,1.173
		c0.599-7.622,5.57-23.237-2.553-27.138c-0.087-0.042-6.26-0.061-6.748,0c-3.546,0.441-6.246-0.046-8.156,3.638
		C289.063,76.689,288.682,76.151,288.301,75.613z"/>
	<g>
		<path d="M287.781,77.096l-0.926-0.391c-0.293-0.114-0.486-0.132-0.734-0.216c-0.237-0.07-0.512-0.074-0.769-0.123
			c-0.259-0.023-0.509,0.005-0.769-0.005c-0.5,0.067-0.997,0.189-1.463,0.437c-0.233,0.122-0.471,0.24-0.687,0.416
			c-0.229,0.147-0.443,0.33-0.649,0.53c-0.423,0.38-0.806,0.84-1.163,1.329c-0.357,0.489-0.673,1.025-0.965,1.58
			c-0.293,0.554-0.565,1.128-0.807,1.722c-0.247,0.588-0.459,1.2-0.667,1.812c-0.828,2.456-1.353,5.045-1.764,7.651
			c-0.188,1.309-0.34,2.625-0.49,3.95c-0.08,0.662-0.125,1.331-0.191,2.003l-0.214,2.072v0.002l-1.54-1.882l8.252,0.03l8.268,0.147
			l8.277,0.356l8.274,0.647l-1.72,1.44c0.169-1.99,0.494-3.857,0.795-5.719c0.305-1.858,0.609-3.694,0.842-5.522
			c0.233-1.827,0.398-3.646,0.408-5.431c0.006-1.779-0.152-3.537-0.634-5.095c-0.491-1.555-1.351-2.813-2.599-3.566l-0.242-0.132
			l-0.12-0.067l-0.06-0.034l-0.03-0.017l-0.015-0.008l-0.008-0.004c-0.299-0.105,0.399,0.137,0.323,0.113l-0.705-0.008l-1.411-0.017
			c-0.449,0.002-0.986-0.027-1.365,0l-1.193,0.042l-1.191,0.012l-0.3-0.002l-0.373,0.034l-0.701,0.072l-1.421,0.127
			c-0.436,0.055-0.878,0.089-1.27,0.166c-0.373,0.085-0.772,0.145-1.061,0.293c-0.342,0.09-0.584,0.295-0.854,0.462
			c-0.268,0.176-0.461,0.477-0.714,0.693c-0.193,0.324-0.393,0.641-0.6,0.955l-0.094,0.141c-0.476,0.722-1.446,0.92-2.168,0.445
			c-0.165-0.109-0.307-0.25-0.415-0.402l-1.144-1.613c-0.501-0.708-0.333-1.688,0.375-2.19c0.708-0.501,1.688-0.333,2.189,0.375
			l1.144,1.614l-2.677,0.185l0.904-1.432c0.423-0.432,0.793-0.914,1.298-1.272c0.515-0.354,1.037-0.707,1.608-0.885
			c0.57-0.254,1.105-0.341,1.65-0.46c0.531-0.101,1.03-0.139,1.526-0.201l1.39-0.124l0.702-0.072
			c0.107-0.009,0.256-0.03,0.329-0.029l0.406-0.009l1.629-0.019l3.084,0.031l1.411,0.017l0.705,0.008
			c-0.068-0.026,0.636,0.222,0.344,0.12l0.012,0.006l0.023,0.013l0.047,0.025l0.095,0.051l0.188,0.103l0.375,0.209
			c0.983,0.598,1.852,1.413,2.51,2.34c0.662,0.926,1.131,1.944,1.454,2.961c0.629,2.045,0.783,4.082,0.781,6.057
			c-0.012,1.979-0.19,3.913-0.434,5.816c-0.242,1.904-0.554,3.78-0.858,5.634c-0.301,1.85-0.615,3.695-0.764,5.456
			c-0.072,0.866-0.831,1.509-1.696,1.442l-0.024-0.002l-8.15-0.637l-8.183-0.353l-8.205-0.146l-8.224-0.029
			c-0.87-0.003-1.572-0.711-1.569-1.581c0-0.093,0.009-0.185,0.024-0.274l0.005-0.027l0.001-0.002
			c0.174-0.591,0.317-1.237,0.453-1.882c0.134-0.65,0.284-1.303,0.401-1.963c0.244-1.32,0.5-2.646,0.778-3.971
			c0.534-2.654,1.12-5.312,1.956-7.941c0.216-0.656,0.437-1.311,0.701-1.958c0.244-0.651,0.526-1.296,0.841-1.933
			c0.31-0.638,0.667-1.262,1.064-1.875c0.398-0.612,0.843-1.213,1.383-1.76c0.261-0.28,0.541-0.546,0.86-0.785
			c0.295-0.259,0.64-0.471,0.99-0.676c0.698-0.419,1.498-0.673,2.31-0.855c0.407-0.042,0.824-0.11,1.231-0.112
			c0.407,0.023,0.809,0.008,1.225,0.079c0.4,0.073,0.873,0.154,1.216,0.246l0.965,0.277l0.007,0.002
			c0.836,0.241,1.317,1.112,1.077,1.948s-1.112,1.317-1.947,1.077C287.899,77.141,287.835,77.118,287.781,77.096z"/>
	</g>
	
		<path fill="none" stroke="#000000" stroke-width="3.1415" stroke-linecap="round" stroke-linejoin="round" stroke-miterlimit="10" d="
		M300.388,74.851c-1.427,6.602-2.854,13.204-4.281,19.805c-1.516,7.01-4.253,4.897-11.326,4.897
		c1.555-7.442,3.109-14.884,4.664-22.327"/>
</g>
<path fill="none" stroke="#000000" stroke-width="2" stroke-linecap="round" stroke-linejoin="round" stroke-miterlimit="10" d="
	M160,100.343c0,4.418-3.582,8-8,8H99.75c-4.418,0-8-3.582-8-8v-16.5c0-4.418,3.582-8,8-8l52.25-3c4.418,0,8,3.582,8,8V100.343z"/>
<line fill="none" stroke="#000000" stroke-width="3" stroke-miterlimit="10" x1="283.333" y1="398.651" x2="283.333" y2="417.826"/>
<g>
	<path d="M225.042,185.791c0,0-0.245,0.267-0.683,0.534c-0.218,0.134-0.484,0.269-0.792,0.396c-0.289,0.094-0.614,0.199-0.971,0.314
		c-0.163,0.061-0.337,0.066-0.527-0.011c-0.191-0.076-0.402-0.229-0.621-0.35c-0.43-0.215-0.891-0.185-1.38-0.304
		c-0.491-0.099-0.982-0.06-1.397,0.271c-0.429,0.3-0.612,1.385-0.951,1.824c-0.17,0.228-0.365,0.363-0.63,0.309
		c-0.26-0.041-0.582-0.24-0.869-0.33c-0.561-0.146-1.061-0.122-1.568-0.131c-0.248,0.007-0.488,0.031-0.707,0.089
		c-0.226,0.045-0.448,0.09-0.611,0.235c-0.338,0.274-0.58,0.656-0.925,0.79c-0.165,0.081-0.352,0.111-0.519,0.159
		c-0.16,0.06-0.327,0.093-0.479,0.133c-0.31,0.074-0.601,0.113-0.852,0.134c-0.51,0.03-0.85,0-0.849,0l-0.088-0.12
		c0.001,0,0.088-0.313,0.324-0.778c0.122-0.227,0.284-0.489,0.495-0.76c0.205-0.279,0.463-0.562,0.793-0.792
		c0.325-0.24,0.811-0.262,1.242-0.416c0.423-0.172,0.801-0.48,1.142-0.945c0.182-0.208,0.357-0.448,0.561-0.641
		c0.2-0.2,0.439-0.319,0.689-0.415c0.257-0.081,0.539-0.099,0.823-0.105l0.835-0.057c0.563-0.012,1.144,0.085,1.645-0.055
		c0.254-0.06,0.494-0.165,0.745-0.215c0.239-0.102,0.484-0.164,0.712-0.297c0.465-0.251,0.909-0.432,1.355-0.738
		c0.217-0.176,0.431-0.382,0.65-0.51c0.22-0.129,0.443-0.174,0.661-0.16c0.214,0.009,0.428-0.002,0.613,0.024
		c0.177,0.042,0.345,0.081,0.502,0.118c0.316,0.101,0.594,0.212,0.822,0.328c0.458,0.229,0.725,0.474,0.725,0.474L225.042,185.791z"
		/>
</g>
</svg>
